<mxfile host="Electron" agent="Mozilla/5.0 (Windows NT 10.0; Win64; x64) AppleWebKit/537.36 (KHTML, like Gecko) draw.io/24.7.8 Chrome/128.0.6613.36 Electron/32.0.1 Safari/537.36" version="24.7.8">
  <diagram name="14_Cloned_data" id="LoB5lB8YHm3__GGpo9Ri">
    <mxGraphModel dx="1219" dy="713" grid="1" gridSize="10" guides="1" tooltips="1" connect="1" arrows="1" fold="1" page="1" pageScale="1" pageWidth="850" pageHeight="1100" math="0" shadow="0">
      <root>
        <mxCell id="0" />
        <mxCell id="1" parent="0" />
        <mxCell id="cXeZOg4dLCww2izmtDTF-2" value="Define original list: data_1" style="whiteSpace=wrap;strokeWidth=2;" vertex="1" parent="1">
          <mxGeometry x="325" y="374" width="207" height="33" as="geometry" />
        </mxCell>
        <mxCell id="cXeZOg4dLCww2izmtDTF-3" value="Call clone_list(data_1)" style="whiteSpace=wrap;strokeWidth=2;" vertex="1" parent="1">
          <mxGeometry x="346" y="458" width="165" height="33" as="geometry" />
        </mxCell>
        <mxCell id="cXeZOg4dLCww2izmtDTF-4" value="Inside function: return data_1[:]" style="whiteSpace=wrap;strokeWidth=2;" vertex="1" parent="1">
          <mxGeometry x="310" y="541" width="236" height="33" as="geometry" />
        </mxCell>
        <mxCell id="cXeZOg4dLCww2izmtDTF-5" value="Store result in cloned list" style="whiteSpace=wrap;strokeWidth=2;" vertex="1" parent="1">
          <mxGeometry x="330" y="625" width="196" height="33" as="geometry" />
        </mxCell>
        <mxCell id="cXeZOg4dLCww2izmtDTF-6" value="Print Original List" style="whiteSpace=wrap;strokeWidth=2;" vertex="1" parent="1">
          <mxGeometry x="358" y="708" width="140" height="33" as="geometry" />
        </mxCell>
        <mxCell id="cXeZOg4dLCww2izmtDTF-7" value="Print Cloned List" style="whiteSpace=wrap;strokeWidth=2;" vertex="1" parent="1">
          <mxGeometry x="362" y="791" width="133" height="33" as="geometry" />
        </mxCell>
        <mxCell id="cXeZOg4dLCww2izmtDTF-9" value="" style="curved=1;startArrow=none;endArrow=block;exitX=0.5;exitY=1.01;entryX=0.5;entryY=0.01;rounded=0;" edge="1" parent="1" target="cXeZOg4dLCww2izmtDTF-2">
          <mxGeometry relative="1" as="geometry">
            <Array as="points" />
            <mxPoint x="428" y="324" as="sourcePoint" />
          </mxGeometry>
        </mxCell>
        <mxCell id="cXeZOg4dLCww2izmtDTF-10" value="" style="curved=1;startArrow=none;endArrow=block;exitX=0.5;exitY=1.02;entryX=0.5;entryY=-0.01;rounded=0;" edge="1" parent="1" source="cXeZOg4dLCww2izmtDTF-2" target="cXeZOg4dLCww2izmtDTF-3">
          <mxGeometry relative="1" as="geometry">
            <Array as="points" />
          </mxGeometry>
        </mxCell>
        <mxCell id="cXeZOg4dLCww2izmtDTF-11" value="" style="curved=1;startArrow=none;endArrow=block;exitX=0.5;exitY=1.01;entryX=0.5;entryY=0.01;rounded=0;" edge="1" parent="1" source="cXeZOg4dLCww2izmtDTF-3" target="cXeZOg4dLCww2izmtDTF-4">
          <mxGeometry relative="1" as="geometry">
            <Array as="points" />
          </mxGeometry>
        </mxCell>
        <mxCell id="cXeZOg4dLCww2izmtDTF-12" value="" style="curved=1;startArrow=none;endArrow=block;exitX=0.5;exitY=1.02;entryX=0.5;entryY=-0.01;rounded=0;" edge="1" parent="1" source="cXeZOg4dLCww2izmtDTF-4" target="cXeZOg4dLCww2izmtDTF-5">
          <mxGeometry relative="1" as="geometry">
            <Array as="points" />
          </mxGeometry>
        </mxCell>
        <mxCell id="cXeZOg4dLCww2izmtDTF-13" value="" style="curved=1;startArrow=none;endArrow=block;exitX=0.5;exitY=1;entryX=0.5;entryY=0;rounded=0;" edge="1" parent="1" source="cXeZOg4dLCww2izmtDTF-5" target="cXeZOg4dLCww2izmtDTF-6">
          <mxGeometry relative="1" as="geometry">
            <Array as="points" />
          </mxGeometry>
        </mxCell>
        <mxCell id="cXeZOg4dLCww2izmtDTF-14" value="" style="curved=1;startArrow=none;endArrow=block;exitX=0.5;exitY=1.01;entryX=0.5;entryY=0.01;rounded=0;" edge="1" parent="1" source="cXeZOg4dLCww2izmtDTF-6" target="cXeZOg4dLCww2izmtDTF-7">
          <mxGeometry relative="1" as="geometry">
            <Array as="points" />
          </mxGeometry>
        </mxCell>
        <mxCell id="cXeZOg4dLCww2izmtDTF-15" value="" style="curved=1;startArrow=none;endArrow=block;exitX=0.5;exitY=1.02;entryX=0.5;entryY=0;rounded=0;entryDx=0;entryDy=0;" edge="1" parent="1" source="cXeZOg4dLCww2izmtDTF-7" target="cXeZOg4dLCww2izmtDTF-17">
          <mxGeometry relative="1" as="geometry">
            <Array as="points" />
            <mxPoint x="428.0980392156862" y="875" as="targetPoint" />
          </mxGeometry>
        </mxCell>
        <mxCell id="cXeZOg4dLCww2izmtDTF-16" value="&lt;font style=&quot;font-size: 24px;&quot;&gt;Start&lt;/font&gt;" style="ellipse;whiteSpace=wrap;html=1;fillColor=#008a00;fontColor=#ffffff;strokeColor=#005700;" vertex="1" parent="1">
          <mxGeometry x="335.88" y="240" width="184.25" height="83" as="geometry" />
        </mxCell>
        <mxCell id="cXeZOg4dLCww2izmtDTF-17" value="&lt;font style=&quot;font-size: 24px;&quot;&gt;End&lt;/font&gt;" style="ellipse;whiteSpace=wrap;html=1;fillColor=#e51400;fontColor=#ffffff;strokeColor=#B20000;" vertex="1" parent="1">
          <mxGeometry x="336.88" y="879" width="184.25" height="83" as="geometry" />
        </mxCell>
        <mxCell id="cXeZOg4dLCww2izmtDTF-18" value="&lt;font style=&quot;font-size: 24px;&quot;&gt;14.  Write a Python program to clone or copy a list&lt;/font&gt;" style="text;whiteSpace=wrap;html=1;" vertex="1" parent="1">
          <mxGeometry x="140" y="70" width="560" height="60" as="geometry" />
        </mxCell>
        <mxCell id="cXeZOg4dLCww2izmtDTF-19" value="" style="shape=image;verticalLabelPosition=bottom;labelBackgroundColor=default;verticalAlign=top;aspect=fixed;imageAspect=0;image=data:image/png,iVBORw0KGgoAAAANSUhEUgAAAlEAAAGqCAYAAAArwRGZAAAAAXNSR0IArs4c6QAAAARnQU1BAACxjwv8YQUAAAAJcEhZcwAADsMAAA7DAcdvqGQAAFSASURBVHhe7d1xiCPXnS/6r6M/ci+supYwTLC79QyrjNyr1R/O7prueqsXkkCnZXSzO4S+g+8/O8GgFzkbdCObwTxIJruTgUsYbLHC68hXYHbyT0xvYybJLay+Dd6waF+1cJLrP7RaWePKG6PWGDfzAmrln/FDzPvjVEmlUkmqOpK61d3fDxQzUp0+fXRUUv36nF+deqzVaj0CEREREfny2L1794aCqFAo5HyKiIiIiGw+43yCiIiIiCZjEEVEREQkgUEUERERkQQGUUREREQSGEQRERERSWAQRURERCSBQRQRERGRBAZRC6pT38POzg72Ki3nLiIionNh0c+FXGxzIXVQ39tFtQ0AIahba1h2FqG56tT3sFttI6RuYY2dT6dOC5UdHU37UyEVWzyY6cTIHJOLfy6UGonq1Pews1dHx3zcquwMPD7LRFS8h/rIF9tCZWcHe6MLeBDEckgBACihlbEHTae+h72dChYzRpdj/eUxuO1hr1JHa5puNZ3FPqPjwWOH6Dh5Pxf6McvPsVQQddRuA0tBBAEAHXSOYHtMsxBc3cDW1hY2xkbp4r1oO588k9poN6vQd8cFsN6cnz6jWTs9x84y1ra2sLW1ha0tFZxboJMnd0x6PRf6McvPsUQQJYImRVkyHx+hPavWnALB4JI4oR8595g6HYiYkiHltEKq9YHbwtbmJtSQAqCN6v75GPUkIqLF5iMnymU+083EOc4xOi3UazVUm1ZUpiAUW8fa6gIFJK0KdvTm6FyZTh17u1Us9faLfjuKbWJjFahX9nuvTwnFsL62ahvBc+ljt/402zCOEtvExkC/ddCq11CrNs0IXIESimJ9bXm6EUTzPWs2+5G9ooQQXV/DsmTFo/ORrP4x58bNvm4rMWxu2PvRLF3Zgd5UENvcwOqRvz6ztyHaqWDf6jclhNj6GoYPyQ5alX3UJvSDqBeIba4j2LK9HyPr9aZf7waWW5Pa6+eYhOfXJoiyeu8zbGe+F0H4b4OX48z22Vs52BNtUGLY3FhGy6xfCan+/6KV/bx57jOffH9Pmp8bt++SHm/t9X/8zul7x2N7fR9nfnl+L7y11/Pn2M93n3OnF14+b1OZdEx6PBf2OI8z8f5Go6v99kp9jieTGImak04de7u67WAEgDaa1f2pp2/mqlPH3tgcKVO7hcrO7sDrazer2D2mKw5alV3otgNMTI/p2J0ql62D+r54zwbetXYT+u5s5pvHCi5DDE41XXKlWjhoAghF5b5EAAAKjmp72LX3W7uJ6tBrE8mPums/uB0bbTT3He+Ha73+Nfd3XNrr1gavx6Sf19Yv65nXNvg4zo5qZgAF8fprthNnu1lz74uZ8tNnPs3le9Jve70fv3P73vHVXq/HmU+e3wv/7Z34OZ7rd5+/z9siGD7OxPur1+bf2sB3v/vdv3U+qSgikWvQElaiUUSjCjq1AyjqFr62HkU09Bm0jENctB6vWNN8fnRQ/xcdzYeAElLx5a+t44vRKKLREJTPHOHTpRVc+KzzZ07IY79HyzjEwz8MIXzhs+j8P/8L/3bYxsP/KB7jgYH/dfAY/rc/CZtt7qBVO8Dh0SGOoCCmfhlfWv8ioiEFHeMAR0ePQYmuQPSa1cf9fj5SQsN9urRilolC6dRwcBSCuvU1rPd+NiraYmlV8D//7QgIqdi0923nAQ4Om/hUicL5K7z5FA8efIqLf6KK19Sr18DB0REek6z30we/hXH4EErI9vOdDurv/xIfHgEI/QnWV5YAfBYX/kMHtYPDfv9bWv+O/YMjhP5kXdThs89EG9p4+PCh7Zh0f22d+r9Abz4ElBjUL38J61+09e9RG4efKr330HptDweOdfd6/ei311HvZx7gwH58Ar6OST+vDa338csPj8Toz9e/JI4zq06EoG59CX/U62LvbfB8nH36AL81DtF++BBKbBNfD3+K2sEhjo4eIqRuQf3DFozDNj570Wcf+zx2fPWZL7Lfk6KvXb9LfLbX1/E7p+8dP+31d5z54f298NNe759jH999vnn8vE1l/DHp+VwIAGjh3/cPcBSKYfNr5vdONIqQ8hl8+thnsXLB/Bmfn2Ov/I9EdTo4goJ+SlQbbftjGZ0Wmm0xXLcxMMwbxPKq2xDxouig1WxDURS0m60Jf1mFoG5tYNUaWwwuY8Vt1nQOWuLPEqjOvl2LIgSgeSAbrQexurbWf03mc8szemFN3XZ13u4uqk0xrK3ah3SXVxAChvq/ddAElBiio0Z/vRo4Jvuv7ahj/TZxDAAhqBu2oWMEsby2jpgCoHkw/NfbxHrlKLHNwXpXxXvs7B9h0jHp77V1OiJRMBS1TS8ElxGNKQCO4P7SJrUB/o8zJYZ1+5eGeRyIfMZ589dnvszle1KyvR6O3/l870i219Nx5oPn90KuvZ4+x3P77vP5eVsUzSZatmG54PIq1lalO8Ezz0FU77Lz3SraaKO6a57c9CbQe+w+NDnRkRg2DK3M/wVPLRi0/dVyhHZbQSgagjIwrLqEobxyl8szl9e2sDX3dS/MqyfRhD60bIA553zUcTnBetRpobLnWJJgwryzFEVBKKZic8PZX+ZJ2t7/nTpqTUAJTZt34eWYNC+scHl/gSDEeXs4gJhcr5zhCxqW4DqwDPc2Dx6T/l6bFaQ0D2xTNZ0WatW2+2cC7nW7fi58HGfO9935eL789Zkvc/melGvv5DbM63tHrr1u5V2PM688vxdy7fX2OZ7jd5+Pz9vJW8aaGoKCNqr6LnZ29lCpz2Y5HC88B1HzZP0Fe5q020dA6wBNJYTl5SCWzCv2TuNrkWbmBDTndHnmwNV5GxtYW3X/Ygguiw9Q0/zUdFpNtBFCVO5Pc5K1HDX/sq5i1/ri3TVPmK4nEY/mfJydFufqu2XBLcp7MZfvvtP4eVtew8bWJjbVGEJKG81qFfru8axy7jmIstZq2IwpEEOj4uSmhsRw+ebWFra25K4EsP6CnXYq47h1Okfm+lhiaFhueHoWhv+S6TP/2um9Ry6by9UdXrRqVbQBKDF1sG71mId9zSRLMaxtDp9PPGmP6zMJLkPy/b/GR4zCHAdr2mGaddy8vrZWDdW2M6dSQSi2OeaqmskW5jjr8XDseO0zH+b6PTnz9s7veweYR3v98f1eTNveUZ9jqe++8Rbv8+ZVUEzhbWxha2sTYpBu3IUkHj7HHngOoixHA9GpdRBMyZrbre5ir26f3+2gVa+M6IQO6pWTuKeOOax6VMN+td0bzl1eCQHNGmptMfV0HNkXALCkKOKKkJZbzouwpChAu4r9SmsmB43TUnCp98HutOqo1I572DeI1WgIaFdRq7fQbCuIjUkI8NJn3lm5FU3oFcexW9kXtyuY8kvNH9sr6rRQ2RdfiJOnHdz4e21WDkx0fR2bm9aX74bL5d5yTv4483Ls+OszX6S+JyeZX3vn870zv/b64vm9kG2v18+xv+8+Pxbh8+ZJp45KpY7WwEFmrXTuvqbj5M+xdz7WiRJalR3oR9baFOZ9bZbGrd/g0cg1HEasdWGtkwGYI2OSc9u+jbiXj709A2t3TFoPw2ZkHwiua1iM+JnBsvY2Dxtej8kbay2lUaat19/P29YVGbF2So+HPhvZBvNnB/vXZU0TixKCasvj8levd2Pfi6Fjz8cxKfHa3AyvMeO9DePqhf04Mz+DsPrQ2aeT1njzwsOx46fPfBvx+4e+J0eWE2Tb6+/4nc/3jp/2+jnOfBvZx85zlvf2jj3WR74GH999HoxtwzTv28j+EgaOHT9lB2IBpxGxwYj6Zb5/fY5EOUeeZrha+fKaOZ/pnApYHw6gYA5jzuGeOpNZyYAYHHGy1u2Ay5DrPC2vYVMNuSQd2gWxuiFW/B5bzKfg6gY2YyFbnQqUkIpNNTbT3+NN/2qbiUmVnvrMj2WsbaqI9Q4A9PtimhPmtKxkfKlvPIv31xY0ryCC+NUDplljZqGOM0/Hjvc+883v96Qn82rvfL535tdenzy/F1O2d+Ln2Md3nwcL9XnzIriK9aHPpNlmtwAKXj/H3vgeiSJaVGKV3hF/eZxxI0cIjo016hCCuulc1biDekUsUXFy7SNafLKf4/P83XfSfI5EES2iDlqVPehNQIlF+SVyIvqj0s4L1zudI7TFXMN068kRkQO/+04aR6Lo9HLOa88gH+C0kv0LdnbG578AcvkGROeJ588xv/sWBkei6Ayw8gv4JXJybPkvjjwDRQkhpjKAIpo9fvedNI5EEREREUngSBQRERGRBAZRRERERBIYRBERERFJYBBFREREJIFBFBEREZEEBlFEREREEhhEEREREUlgEEVEREQkgUEUERERkQQGUUREREQSGEQRERERSWAQRURERCSBQRQRERGRBAZRRERERBIYRBERERFJYBBFREREJIFBFBEREZEEBlFEREREEhhEEREREUlgEEVEREQkgUEUERERkQQGUUREREQSGEQRERERSWAQRURERCSBQRQRERGRBAZRRERERBIYRNEpUUI6nkbJ+fSpdJZeCxHR+TWTIKqefg43As/hRvo95y4J91HPv4ZCwKzT3N6e9xnHqCAeeBWBgU07Gyc6yddWyv8EgcCriKcrMJw7j5WBfDyJog54bkgpjUAggPSkF3kSDAB6EckAAykiotNsJkHULNXTL2I7W8ahcwcdsw9xJ/sAAKAXP4DmNXiZwChVkI7/BIH0h85dI5XSEWR1FblGAYmwc+98Gfk44rMOdsIJFBo5qCgiuZBRHhERebFYQZTxM/yyKP57MfcSvt19C9fN7RsJZ+EZC6+h3H0R3e6LaOQuOPeeblKv7Qu4bJZVU08hOZPg5XfQbv4riroIzjwppZEsAmruNjIzaYM/d2s6dOeTsxDO4HZOBYrJxRwtIyKiiRYriLrbNEegnkQs+Qy8nu5pPhKZv0a3+yLKhTWcQPwipvFuFgE1h9snEUHNWTjzPaQAFG/mPc9SEhHR4pAIou6jnn55IGdp2xw9Gjac31RI/wz14z5jGB+KKaRePtBPEE9/ON2Jy/gQ+fRPBnKN4nENJUelpbS5L/87GCXNVv4nSOd/N1gYAPA7lPL2ciInyVnv3JQ0R+7UpPyp36Hk6IdAXEPJ6L82w8ytCgT+EVlrWKf484HfEXfri9ItZHVAvZKcEMQZKOXTiMcDCATMLTnioDRKyKfjiFvlAgHE4+nB/jXzqQKBAEQ1RSRt5QOBAOJ5xxvipd4hCVzLqYCexa3RHQwAKKXjCATiHLUiIlogPoOo9/B24EVsFz/ykLN0H+X4cH7TYfGn2I68hrr1hPGzfpCVLJtPfoR3I7bE8vjP4GMCaFBJQyDyc8cU0gPoxZ9PPHGNZFQQj/wc2eKDgakeXf8AychPXE90evYfEUl+YCv/AMXsPzrK/g75+D8imbWXA/TivyIZGRfInJQPkQ78I5KOfoD+AZIRfer2lu4UAai4MnYu0UApHUEyW4Q+cd7NQP5qEtni4BSdrheRjEyT9yRfbzh5BSqA4p1xpUq4U9QB6By1IiJaIL6CqHr6FVQBMd2mvdrLV7qScpYEHuT/Hu/qouxXrbKNlxADAJSxPZMr+Sb5EOnkB+K/6lPQGiIvqNv9JhraU4g6i3vyO+Sv/qt5srTV2fhLiG54gOLNEVezqX9hlrfKAsU7/QRrI/8/zJGaC8hp33TU+wGSPpKxpSWSZh95yJ8qfQAx3nMBKc3q2xfRaPwlUmr/Z8PmtGC3+03kVPPJ1F/2yne7L6Kc+VyvvGCgUQWgXhmfj1W6JUaL1By0RhfdrtgamstBCQCxFHJao1eu221AFC2iF8ckCr39Yl8KWq+82MrO6UUv9boJJ3FFBVBtuB8zAIAELqdUACpS35s0KkdERMfFRxD1Hmq9pO//im8knnAWsLmP+vZHgFk2bpUNP4Mv5Z4U/6/eF6NL4b9C2kog1+Lmzz+Jrzb6SeXXy38llR9l5P/v3kk+dztpu7LrcwgnksjIJKsbd7FtDjeoObVfZ/gLKGhPif/rblezPQWtvGaW/wIuD53jfwdtW4yWqbn/hEzCDCrCX8A1K5ip/r9jTrQnSQSO1tRVOPwFFMprkOnevruo6QBikTFBg5kzhRS0cmbgyj33nwkjUyggM3CJXxiJ4TfDp2nqDSMSA6DXcNe5yyZRKKPbLaNw3JcnEhHRSN6DKON+b1ruYmRcAAUALRyagcZh9sWB9Z5ez4rgCnpTforOo7s18zeos7q6DMBda+rqAq4kHaMnly5ADLQ8QM15RlQv4JLjqUG/E0GDOfVnzxeKmEsNQH8w9kR77BJqf2RJ/1ckIyeQwwUAanRC39oYJaTj8YH8ppH5U37Mq14iIlpY3oMooiGfQ6b8TTS0v0DKCqZ6OVzuuWGzZY5WeWXkEY8kUZycPOXPvOolIqKFNoMg6j4eiEQpm2VcNE+qF3P93KnB7TtYdf7YjF2KmtNgrtNrksaMNhmalRB+AVHPQyOWzyFq9pmaM/OhhrbklFNk8/A5hBNrKJTNXLOcOaWJBwP5Xv5dEv0xNlfILOMyFSaS0h3P3cpCB6DmNDTsOU6j8qd6qmiMbsQU9cKW++VjNI2IiBaC9yAq/Axi5km+etO6Wk5cgScSyO2ewOoVkft0mP17vF267yxwLMLJp3oBT/aqffkBsdyA+xIDE4QviURgAMWkrU7jQ9yypt2kpg8/h+QVEfTp2f+BdEmibcfMyGtiqYhev34O4aQVZLr5nMj/AYDiBxOm/Kxcoe0xAbBZBkXctJYcMErIx62lCdzFIpd6OVNGKY/0zdGFL4koDdtaaUwwJ/ipt8fQRI7d2NwvLnFARLSIHrt3794j55OhUMj5FADgQf7lfk6TzUX1SRzqHwGpl3C98Iz57Ht4O/4KqkMBlnAx9yrSGUduVek1c5mDJ/HVxo8QH3dW8cjI/6SfU+Sg5r7ZuypsXDlAXFnXKJuLTpY0xAeWK7C7gFzjr3ura5fSr5pXj9l+3v586i/RLXzBfPZDpOM/F/eIc2Fvrx9+Xtvsyg72Q09JQ8C6YtLG9bWV0ggki1BzjeGr4SxGHvGIGAmyU1MpoFhETOuiYA7fGfk4Ir2FqoalbGV7zDY42dskVa/J+tlxZYAS0oGkuEhCzaFRzowNuIiI6Hh4H4kCcCHzI3w7F8fF3jNiqYP099yCrmfwjfKruJJ60lb++IUzf23m7Niv77sANfWXuO08aXuVSKLsuIxf1PkX0NwCB8++gEL5m9BS40ZzFkc485+g5Z6COtDYCf2QSKIx9DMjJK5BrEV5a/RaS+EMylquX5+qIqU1UL42vIBFOFNGI5ey9a0KNaWhoeVG93eigIaWGtteqXoBAAa0bR1Qc7g2MoAClzggIlpQvkaiiI6dl9GoU8rbKBQRES0qXyNRRMcuUYCWAvTsVTjvtHKqGXlczepASmMARUR0SnEk6tT5EOnAz81FRCd5CtpCXtHnl5UTlILWKAwsqnkqGSWkI0kUmd9ERHSqcSSKToEECl1NrEV1FiKOMABVrLJ+Fl4OEdF5xZEoIiIiIgkciSIiIiKSwCCKiIiISAKDKCIiIiIJDKKIiIiIJDCIIm9KaQQCgYW9d5uRjyMQCNi2+PTrShl5xAfqDCCwqB1ARETHjkHUFB6Ufoa34y/jRvo95y4awcjHEQ+kR9/GhYiI6JRgECXtPuo3f4qqPnxDZhrtbk0fulnw7KSgdbvodrvodsvu9+7zI5xBuVefhpRzPxERnWsMooiIiIgknO0gqvQabgSew434z/AA91FPvyweB55DIf0zPHCWx33U86+hYJaxytVtuTUP8lYdL+Jda0il+Eqv/I3Acyjk7/fK19Pm8/HB39d73j4V6KO91s8X8vfxoGRv88t42/b75Rgo5dOIx225QMkRN5oxSsin4wO5Q/F4GiV7PpKZTxUIBCCqKSLpyDWKOxOYvNQ7hVI6jkAgvrA5XkREtPjOdhBl0Zv4l/SL2C72p94Oiz/F6wO5TPdRjr+I7WwZh7ZnD4s/xXbkNdRtz82dp/aaz2dfxOtJe5s/QjX7It6WDg4MlNIRJLNF6BPn3QzkryaRLQ5O0el6EcnINHlP86rXUsKdog5AR/FmHjOKy4iI6Jw5H0EUyqgWgZj2Kq5338K3c0+Kp4uVXnD0IP/35sjSk/iqWe564yXEzJ/fNgOYC5kfiX3dV/FV1fzh1Evmc2JLZ54wd8ia3N4B6n/BlcZbuN612gtU7wwHXJ6UbonRIjUHrWHlA3XR0EZkBMVSyGmNXrlutwFRtIg7VrSTKPT2i3323CWxlZ0JTF7qlZbA5ZQKQEXqe0nev46IiKSckyAKuJh7Fd9IiODmQsS6N2ATDwyIabxtMepzMfdfETfLIfwMvmQFMNX7LtN/8zO+vXZxXCn/FVbDAPAMoiNiHW8M5G8WRZBTziBhiy7cA40wMoUCMvaCCCNxeapGzLHevkShjG63jMLA7yAiIvLunARRTyKWtI0OJb5jjhr9CPEwALRwaM4bHWZfHMhvej1rTqnpzWMMoia110YN4YLjqampUVxyPjeKUUI67lijaVT+lB/zqpeIiGhGzkkQRd7cRW1iHpSNkUc8kkRxcvKUP/Oql4iIaIYYRAEAlnHRzG+6mDPzoYa272DV+WPS3kNtIQdVLiGqAtBruOvYU7oz3ODSrSx0AGpOQ8Oe4zQqf6qnisbQtGSffL1ERETHh0EUAOAJrF4RuU+H2b/H2yUvSwQ8gQtWFnexMrAMgt2FqJlTpZv5TMZ7KMdfQdVZcCGEEYkBQBE3rSUHjBLycWtpAnexyKVezpRRyiN9c3ThSyJKw7ZWmnhVnJ96/eISB0RENC0GUaYLmS3EVIglApKDeVHOtZ8sq5fj5v/K2I64l72Q/N9x0V4m8gre1YGLqhlcLZjEtRxUAHo2IvKQIklkdUBNpWBdjGgRARFQTJplAwFEklkUx8zChUWUBj2bRGTEOlEy9frDJQ6IiGh6DKJ6nsE3yq/iSupJM+jxIPEdfDsX700Fugr/Fba0uK3OJxHLvYr096wr7hZMOIOyloNqvSZVRUproHwt6igIhDNlNHL24EqFmtLQ0EQg5ipRQENL9et3IVWvL1zigIiIpvfYvXv3HjmfDIUW9ARPNIKRjyOSjUHrFpBw7pyJEtKBJIopDd3CfH4DERGdLhyJIiIiIpLAIIrOEPs9+eJw3o7PNyNvu3dfErNLayciorOAQRQRERGRBOZEEREREUngSBQRERGRBAZRRERERBIYRBERERFJYBBFREREJIFBFBEREZEEBlFEREREEhhEEREREUlgEEVEREQkgUEUERERkQQGUUREREQSGEQRERERSWAQRURERCSBQRQRERGRBAZRRERERBIYRBERERFJYBBFREREJIFBFBEREZEEBlFEREREEhhEEREREUlgEEVEREQkgUEUERERkQQGUUREREQSGEQRERERSWAQRURERCSBQRQRERGRBAZRRERERBIYRBERERFJmE0QVUojEAggXXLuoHkz8nEEAgHbFkfecJYimoKRR3zgGAsgwA87EdGMgqgZMfJxxANpnOzXs4FSOi5OGvE8zlY8YuDjW3H88tkAfvE3efzeuXveDkpo3IrjF88GzC2OX//T8fbw7/fz+PXfWL8/gF/8TRy//qfS8feF6ff/1O+PX+87985LCb/uvQeO7SSOCyKiU2qhgqi7NR2688njYojgKRCIIFk8wXZISUHrdtHtdtHtlpEJO3YfiODpF89G8Kt3dXQcu4/FQR6/TCXxwbv2ntVx/80IfnHruMLmEj74uyzu/9b21G913H8ziX8+tjbYHOTxqzdPwZEWzqDcO740pJz7iYjOqYUKok5S6ZYIngAVOS13pk4UH/9UBE+Aiqd+kMMTzgLHYSWC4B+l8NQPGvj6O118/Z0uvvIDs5ffvYOPneXnJPjVHP68KH7/19/p4uvFHII43jYIBhr/LYsOUnjqedW581gEn++/F73tHzL4A2dBIiJyJRFEGSjl04jHbfkRyaKzkGCUkLemxswtHk+jZJ/BMfOpAoEARDVFJB35F3Fnko+Xen1KXM5BTWlodMvIJCLO3afa4/9HDsGvavjKO2VE1k/qtSXwZ/9QQGS9P0z2B+sF/PlXAaCKzoG97LwkELmWweMrtqdWMnjqq7bHx+T3/3QVH/wWeOIHhZMJaomIaGo+gygDpXQEyWwR+sRZCAP5q0lkHVNjul5EMjJN3tOc6k1kUC4k4JwJOxPWM/jytQRHGFz8fj+ND94Fgs9fw+POnfNiTuMFn2/gz9adO4mI6LTwF0SVbonRIjUHrWHlSHTR0EZMfsVSyGmNXrlutwFRtIg7VrSTKPT2i332/B6xlZ1JPl7qXRCltOOqJud25pLX/Sjh/rsA/ugKnrCPDs2VgYYtsfyf/66I4PMNfPk/H1f4bE7j/VEOf35sv9Nd583IwiTYExGdRj6CKAP5m0UR5JQzSNi+/91PBWFkCgVk7AURRuLyiIDLs3nVS8ft41tJ3IeKp/6vk83Duf9mBL88pqsExTTeyb/mIVaCPa/OIyLyzEcQZVKjuOR8bhSjhHTcsY7RqPwpP+ZV7xwkCoOjakNbOTMiCD3bPr4Vx6/eBZ74QRmRYxuFAoAwIv/QT6T+yg9EYnnnzcj8lxjoTePdPubX7JTAnzkSyr9SNC84+G0WvzqmgJKI6LTzEUTdRW1iHpSNkUc8kkRxcvKUP/Oql46JgY9vBfCrd3U88YOTzwn6g/UMvmxeoddpzjd4+L2+jY5zGu3ZAP7ZXObg/t+Jx8c1Kmb3BysZ/Jl1tSQREXniI4i6hKgKQK/hrmNP6c7wKFDpVhY6ADWnoWEfeRmVP9VTRWPMOUS+3pPBnCg7A42/iZgjUF38me1KPTp5v29WnU8REdEYPoKoMCIxACjiprXkgFFCPm4tTeAuFrnUm64ySnmkb44ufElEadjWShMDCz/1khyx+GgA8Znc4kMEUB/8VjUDKOd+d7Ntw7DfH5Tw6/+WRQcqnlDdg7pZteEP/nN5eF2md7r4irlO1BM/EI/dktxn1QZ3Bn6/nzYX/hzdD0RENOixe/fuPXI+GQqFnE8JRh7xiBgJslNTKaBYREzropCwisYRyTpL9qVsZXtKadfcJjXX6F2hJ1WvFyN+d4+aQ2MB85dEf8SgdQsY+bL30/jF3415bX+Uw1eGFlksIR1IQvyUilzDZSV0H37/T/HetJWrY2jDuH4YfYXejNvgwuqb0cHljNswsh9UPPGD8og2WMy2pDR0pT5oRERnh4+RKPP2D1oOqrXAsqoipTVQvhZ1FATCmTIauRT6azGrYjFLLWd7ziFRQENL9et3IVUvSUigcOJTpPNug9pbwdw9gMIxtMGLebfB6odJARQREdn5G4miheNpJEqSUUrjarIIHam51O8F2yAsQhsEjkQREVn8jUTRuWAlw0eSRegAUtrxn7TZBmER2kBERO7OaBBVQtp5FdzIbYpbxSwM+/0G43DealCWqqagNSRzzGaEbRBOtA1G3nafSis3i4iIzmgQRdOwFggtlwsDK9MfJ7ZBWIQ2EBGRO+ZEEREREUngSBQRERGRBAZRRERERBIYRBERERFJYBBF55KRn+dtVPwqIR0/C1eJzhP7iIgWzxyDKJdlBhbihOVTKY1AIIDT2PS+M/JeuJJ5bQa0bXELGr1454RPzAby8SSKOjDxhpGWM3FM+mQA0ItInoklSYjorJhjEEW0qMJIXhE3CVJTl2e2eKWRjyPu8yRfSkeQ1VXkGse/hIFMe2fPQCkdF+tQxfOj48hwAoVGDiqKSJ6r6JGIFtkcg6gECl2xxk23q2Ged/6iSc7yeyH32sKZslh/aYarV96t6UM35x6rlEayCKi529PdUFiS7/bOkiGCp0AggmTRYzvCGdzOqUAxeb5G4YhoYc0xiCKi0QzkbxYBNYfbJxFBnbDSLRE8ASpyWs5H8Ps9pAAUb44ZtSIiOiZyQZRRQj4tEnOtW42kp77XiG1Y39zi8TRKjmpFQnAcecNAKZ/ul4+nR9zuxFEuEEc8XRrxBWyWjdvya5ILfpOLM/tezIPf/ClnewOIp/OD/WDmJwUCAYhDxX4LHvNn3DqjdAtZHVCvJDE+hPJxTJrHwtj3Taa9Xur1KXE5BzWlodEtI5OIOHePkcC1nAroWdwa99YRER2He/fuPXJu3W539NbIPVKBRxja1Ee5hkv5bvdRt6s9SgGPkNJc9nUfdbuNRznVWZ97vY2c+gjAI9W1fOqR5qhbSznLmJuae9RwtGFkWeBRSnO2eQG2M/teyG6TXpu5376NLDumvfaf0VLD+x2bmmuMqHvc+9T1eUyOe99s74Xv9nqsd6rNfF+8HgfWcT/mvePGjRu349h8jkQZyF/NQgfMvyKtXJQGtFzMWdgzI38VWR2AmoPWsNWZUgHoyLr8yanr9jY0oKUAoIg79qJmzgmcbU25/CVbuiXKDrShi4aoWFopPfhX/tA2Lpl2rDP8XsyNn/ypEu4UAaRytvZ20dBySEVtxRKF3j7xulPQbOW73S7KQ9N1BhpVAOoVJJ277Pwek7EUclrD9rtd3guZ9nqp9ziFk7iiAqg2JD87RESz4S+IMjRs6+JEWC4kbNMQYSQyBcnkWOty8xS0csZ2hVIYicJt5FQAbpehD7QhjMRlcWKpNvpfqyVxFoTmbGvBzKvonQHM/JShNmDCVMsJOrPvxYIpbkOzzVuFExkUMtMmo99FTQcQi4w5vvwek2FkCgVkBi7x678X8uZV7zTCiMQA6DXcde4iIjpG/oKouzXoAFKXpz2J2JknFNdLzc0vS1RhOx8Dntpg/rXvkvMRCCRRhMtfsmoUl+yPZyBRGPwrf2grZ0acFCc46+/FiUugoKWgQkc2GTFzzRz5UMfBzzFplJCO2/PjxuRP+TGveomITjlfQZQhzoRnkBk8nCJn971YIIkCyt2GmMJTdRSzWSQjx7XKuc9j0sgjHkmiqPv5IQ/mVS8R0RngK4gKi6GIgWmamXGbJuqNYMQQ8T1cY46cqIM5Le6jQJcQVd2nB8Q0lLx55USd3fdi0YTFFF65i263gZwK6MWbI64+hOtI3TDzeBs7+ubvmCzdMvPjcvacsy66o/Knesa3V77eebJyynyM0hERzYGvIAqJy0gB0LMRxPP2S9PFZdijTyzjJCDSK8RKxAN1ps0kZ9fppckuRUXS8tV0CcbYtllTVUXctF6EUUI+bl0GvoDO7HuxIIw80uk8SgONtVY611FzRjbWa4SObW3Ssg1WTs82tJEF5Y7JWORSLxg1Snmkb44u7L29/uqdOysfcGxOGRHRMXAubzBxiYORl0g7LtceWU5sg5dRu1x6bm3q4GXU1mX1Q0sOmL/P++XZjjpGLBegplKPVGfZRdlG9vEpfy/8bH5em5+yI44HsY24tH9E/W5LHLj3kWMb0Qa3Y9J6L0Ztrv3rob1S9XrZRvzu3jZmuYORxx03bty4HfPmbyQKIk9E5IiIe48JKlJT3boigUJDQy41WKea0tAoF6RGPoQwMmVxGb29ZlfhDMpaDr2XpapIaQ2Ur9mvZ18wZ/W9WAThDG5rqf7xAPT7oTuiHxIFNIZ+ZoTENTE1mL3lMnVq8nFMhjNlNHIpW9+abdVyo/vbQ3ul6p0r8wpSNYdrrm8CEdHxeezevXuPnE+GQiHnU0Q0a6U0Aski1FxjeG0mcmXk44hkdaS0LmZ420MiIin+R6KIaDYSBWgpQM9elcxhO2eMPK5mdSClMYAiooXAIIoWiMu97UZu6dHTYKdIoqAhBR3ZyHT3ojtZx/C+GSWkI1noag4NRlBEtCAYRBGdqAQKXQ0pFeClZmOEAahi9XZ2ExEtCuZEEREREUngSBQRERGRBAZRRERERBIYRBERERFJYBBFREREJIFBFBEREZEEBlFEREREEhhEEREREUlgEEVEREQkgUEUERERkQQGUUREREQSGEQRERERSWAQRURERCSBQRQRERGRBAZRRERERBIYRBERERFJYBBFREREJIFBFBEREZEEBlFEREREEhhEEREREUlgEEVEREQkgUEUERERkQQGUUREREQSGEQRERERSWAQRURERCSBQRQRERGRBAZRRERERBIWLoh6kH8ZNwLPoZB+z7nrBJSQjqdRcj69YIx34gh8K4D4m7Nt6bzqPW3YD+Tf6fjuIKLpLFgQdR/17Y8AAIfFCurO3cfKQD6eRFEHYDj3AaU3Awh8K4CAeWJ1Pj4+BrRf6QAAvXJnhl/a86rXixLS3zL709qOvV8tJ9kP/jiPQefjE1NKIxAIIH3CzThWBgC9iGSAgRTRWbZgQdQTWL3yJADgYmoNq87dkh7kX0Yh8JqvoKyUjiCrq8g1CkiEnXuBS4+rzqcAAOrjl5xPATBQejOOuC0oiL+ZR+kTZzkZYST/XLRFXbuMhHO3tHnVe7JEYOHnxDaffjDeiSPuqx2T+TsmTx8jH0f8xIMSA6V0HPFAAIF43u3vKyGcQKGRg4oikucqeiQ6XxYsiAIuZH6E6923kC4849wl7UHtIxw6nxynlEayCKi528i4BFB21glq1AkMMJD/YQTJig4xniHolSyS12dzQgg/W0b3jS7Kz8/qFC/Mq97JEii80UX3jS66b2hIOXcfs3n0w92PB4+HWZp8TJ5Od2vz67OJDBE8BQIRJIse2xHO4HZOBYrJ8zUKR3SOLFwQdfIM5G8WATWH25MiKA+Md64iewBgJQfthhUYNKCtAUARyZOeaiGiiUq3RPAEqMhpOc+BfTjzPaQAFG+OGbUiolPLVxAlkr5fRtkAHuRfQyHwHG4EnsON+GsoD31DvIe3A8+hkL8P4D7KaZEwLpLGf4YHLmWt/TcCz+HGiMTyfhvuoz6uDaXXenVtFwGgjG3H7xBtcyjdQlYH1CtJjAuhwo/HXB/HHrf/VAm37ugAUtC+n0Hi873SSDzfQG4FwECejcgFir9jiGDuTZHQbE3/DXax37whMaU4UL63xZHvTS16r1ckXMeR/8RA6Z10f7ryh2lbfTaflJB3Tmv+MD2jac1Z894PgqMP3KZs30/39iUrEEG043eI936YeO/iSL/v3NPn7ZicNwOlfBrxeACBgLkli85CglFC3poaM7d4PI3SwOdY5FMFAgGIaopI2soHAgHE844+81KvT4nLOagpDY1uGZlExLl7jASu5VRAz+LWuMOHiE4lX0GUpXr1ObyeLfenyPQy3o2I4GpI7T28HXgR7xZFwjgAHBZ/itdHBEnefITq1RexPdQGf3lPbkp3igBUXElOOPE8XRBTPM+a5czHhadtZd6/gyIA9fI1l1waK9emiDvOE+PHGtLfiiBb6U8a6JUsImNP4uP0pxRnT8f2f48geafYn+I4KCI7NFVpIP/fk8g6pzUPijOb1jxJpTcdfWBN2WqzeGUl3KnoAHQUf+EMpm28HJNzZaCUjiCZLUKfeKgZyF9NIuuYGtP1IpKRaY6HOdWbyKBcSIz9w2qUcPIKVADFO9K/nYgWlEQQ9REOdeBi6iV8u/sWrndfxZXckyKw0YZHdg6LP0UVT+Kr2qu43n0L1xsvIQYAA1ffPYNvdN8S+7vm/gmG2pACgDJq1vdU4jtmfW+Z++K40vsdYktnnhioEzDQqAJQr2BSDOXHqJEA58iBRa9kUYSK3AsNMf13w8wLGhi18pE39P6t3pRiw/oZq06koL1RRqY3SuajXpN+AKhrmll3f6pyKDhcTvVf06SyJ85PP5RwpwJgzda/b3TReCGH1OO2YmZQ032ja77uFDRb+YEAaEACl9dUACpSXx8/QnqiSrfEaJGag9bootsVW0Mb0XuxFHJao1eu221AFC2iF28kCr39Yl8KWq+82MrOaXcv9R6ncBJXVADVxugAmIhOJYkgCriYexXpwjO4AIgr6jJbiAE43H7PMU0HM3j5EeIJM2AJP4PoiO9UX1IvDbbhchwAcNgYDuS8u4uaDiAWmcmJyvi46nzKVfVj51erGdg8bbbi8wlcXnMU8cFqR+rrmf7r+nwC1y6rAKpoTDudtqah/Lz1V3oYiT8Vb/Dg6woj83yh/5rM56yyZ0JlG9r7/dccfjqDwrPDY5AyEs+X0X2jjMJA/y0SM5cQKWjlzMAVre4tDiNTKCAzcOlrGInL0x4P86p3GmFEYgD0Gu46dxHRqSYXREWcIzjLuDjqQiCXpQpWC2/hevc7Q8/7Ebs8u6v35mXUSJPT0EiVy6X0iee76L5RGHreC6sdxd/YpoI+sfK1Yoj0RqHkpP7UY6s+KSH9Q0de1o9H5MucKgkUXkhBhY7sjyMid+mdWS1hccqoUXheUMEoIR2PD+Q3jcyf8mNe9RIROUgFUeTP8EiT4HWkampPXzOT2LOIWMHL9SSKcA/Y5uKTPOLXkygeTEyWOZ2eLqD8RkNM4a3oKN7JInn9PK1ybo7iemXkEY8kUZycPOXPvOolInIxmyDKeA9VHUDsCXN6bRE18cA9lrG5hOgscxcej0IFoP9Kc6mvf+Xe5Xkn/po5UeqKfbhQRepyA90Zrn00TknLQgegXrZyp8zthZOcZpm1sJjC+77I98qtAHrlpvuVisBsplIXhvnZcZmyEhdrOJ67ZR4POQ0Ne47TqPypnioawx+mHvl658nKtfQxSkdEp4JkEGXLOzLew9tXf4rDBZ5iuxC1Et/dcrbsrNyFbWhjvqg9+3wG31sDcCCurLNPpeV/KEaC3K/cm63Sb0Suyvf+z9to9NaqKqPgmsQ8X7HHL/VyZIz380j/YvgEe+p8kkf6zTxKnwzmgImrL3XUPrY9bRILYerY/o3tuBjDyxIHMsQCkgHEp14N0vzsoIib1pIDRgn5uLU0gbtYxHY8lPJI3xxd+JKI0rCtTe4zP/XOnaFhe4a5lkS0OKSCqGryxf56S5FXxChU6iV8QzYasK3pdCPwCqoAUHxl/HpOPlyIhAAAh9lX8PqEdaJEAqqO7ZlEUUAimYMKAJXkwFSadbXcbdlAxrbmUOBb5tRcJem63pA4YReRvB5B5LpjXSLnOk0+6vXDWj27+ONIr67Ij7MoHjhLzq8NfcPrMwW+5VgHymcbqpUsktf7ry3wrQAiY0YarTw1/Y7tuHCpV/C4xIFvJdwpimkvvXgTzuWW/EpcE8e6no2IPKRIUqy5lkqJz4CNCIiAYtIsGwggksyKe1WOEBZRGvRsEpER60TJ1OuJbb2qQMA8HvRsvx1jbgFjaNvQAaQuy35BEtGikgqiBqhPIpZ7Cd+e4W1aZi7xHXxbi49OfrdLXINYG++W/Joydp/PoHxDQ27NOZWmofF929VycxR+VqyaDADqyuC+41qnKfxsGY3L9pOpKpZFeMEMMk+zz2dw+4WUo2/N1zfqYoCnC2gM/cwo81riIIHCLKe5whmUtRxU6w1VVaS0BsrXoo6CQDhTRiPnOB5SGhramOMhUUBDS/XrdyFV71wZ0LZ1QM3hmuuBQESn2WP37t175HwyFBIjN04P8i/j9exHiGlvyY86nQalNALJItRcY3gNmlNHLLSZPUhBu1GwrZpu7nszgmwFSL1wnIsy0qIwSmlcTRahIwWtOyLgI2lGPo5IVkdK66LAziU6c6YfiTqLEgVoKUDPXp16iuPk3UXNnDJzpssbn9xFrQIAKqL2RSHpzCulrakuscp6SmMANXNGHlezOpDSGEARnVEMokZIFDSkoCMbme6eWyfvEqIrAFBE1pmzYy5zoF6+bVuxnM4TVU1Ba5y3UZIS0vY1pMZuklPdRgnpSBa6mkPjfHUu0bnCIGqkBApdDSkVo5ZcPiXCyHy/AW1NHcq/UVfEbVjcbzVCZ1miYN4ypVwYWF2cZiQMQBWrt7N7ic4uXzlRRERERCRwJIqIiIhIAoMoIiIiIgkMooiIiIgkLFwQ9SD/slhNPP2ec9cJKCEdl7w6h46d8U5crPp9bm76S4uL3x1E58GCBVH3Ud/+CABwWKyg7tx9rAzk40lxuwiXJQ5Kbw7eKsT5WE4J6XG3IjktzFumzPo+b+MZ0H5l3sKkcudcnrycx6Dz8WJxWWZg6vv3nQDzdjBDTTcA6EUkZZdIIKJTYcGCqCeweuVJAMDF1BpWnbslPci/jELgNV9BWSkdQVZXkWu4XwJu3QvOSX18xH3aPykh/2Yccft90t7MD963jnpEAODnBGTd8BdQ1y7PbOFI45044r7acXJ8H5M0P+EECo0cVBSRHIqwiOisWLAgCriQ+RGud99Ceob34ntQ+wiHzifHKaWRLAJq7jYm3fXFOkGNOoEBYmQmfj2JbEWH/T6oeiWLpGb/gk2g8EYX3Te66L6h9e53R96Eny2j+0YX5ednFUIBdz8efM9OA0/H5IlLoNAVa1V1u2f0WA9ncDunAsXk8EgVEZ0JCxdEnTwD+ZtFQM3h9qQIypMS0j8Wt9ZQ1zQ0blhBUheNF3JI8XYrRGdWOCNu/l28mXfLCiCiU85XECWSvl9G2QAe5F9DIfAcbgSew434aygPfUO8h7cDz6GQvw/gPsppkTAuksZ/hgcuZa39NwLP4caIxPJ+G+6jPq4Npdd6dW0XAaCMbcfvEG1zKN1CVgfUK8mxKw2HH4+5Po49PvhTxjs3UQSANQ3l5xMI226vEn46g8Kz04yaGCg5pwh/mB6aIhQJ13HkPzFQeifdL//DNPKu04mOct+KI/5macRJwCz7Q1se14+LzkJz5DePzPnaXKZVzZyuwLcCSFYAoIik43fE33HvjdKboq+PNx9M8HpMzp1RQj4dt+U7xZGe+iaUBkrpOOK2HKp4fPiWTEY+jkAgjrxhoJRP98vH0yPug+koF4gjnh5zrOfTiMdteVzJScd6AtdyKqBncWvcYUlEp5KvIMpSvfocXs+W+1NkehnvRkRwNaT2Ht4OvIh3iyJhHAAOiz/F6yOCJG8+QvXqi9geaoO/vCc3pTtFACquJCeceJ4uiKkj65Yp5uPC0/ZCVrKzilxymmDJjYH8DyNIOqcID4pIXo+7BEc6tv97BMk7YlQMAHBQRPb6cL5P6U1HOejQK0lEfuj8a9rolzVvcrzohl+b27SqrBLuVHQAOoq/cPbVMfB0TM6ZkUc8kkS2ONDDKE51M28D+XgEyaLjWNeLSEbiLvXq2L4aQTJre5/1orgP5mBBlNKOctChF5OIxJ3vn9Ev63N+N5y8AhVA8Y7ztxPRaScRRH2EQx24mHoJ3+6+hevdV3El96QIbLThkZ3D4k9RxZP4qvYqrnffwvXGS4gBwMDVd8/gG923xP6uuX+CoTakAKCMmvU9lfiOWd9b5r44rvR+h9jSmScG6gQMNKoA1CuYFEN5cxe1AwArV5Cc8Q1+jXeuInsAYCUHrTdFKO6RB+jIugQF+oE5pdgrCwBF3LGPmryfFqMvvXK2eg+yuDVQ9pYoO9CGLhovHGeGi588shLuVACs5WyvzWVa1Qw+um90zT5KQbOVHwhUBiRweU0FoCL19fEjmWeTgfzVrJi6Tmlo9HKeGtByXj7V7oz8VWR1AGoOWsNWZ8o81l2GeHTd3oYGtBTEsW4vauY+wtnWlMvIUemWKDvQhi4aouLxwklcUQFUG8cfWBPRXEkEUcDF3KtIF57BBUBcUZfZQgzA4fZ7jmk6mMHLjxBPmAFL+BlEPXzvTJR6abANl+MAgMPGcCDn3V3UdACxyIKfAK0RrhS072eQ6AVoYSSev43cCgC3y/ytKUWr7J+KN6L6cf+rvfSboqi3V84s+7yZ2/Ebq1YD+V+YZQfacAru11zZhvZ+/zVPP63al3i+jO4bZRSeXvhemD1Dw7YugpJywXH8ZAoTL9JwZ0ATlUIrZ2xXyoaRKNxGTgzxDB/rA20II3HZPNYbtmP9jnn8OttaMI/1XsRl5kkOtcHrsR5GJAZAr+GucxcRnWpyQVTEOYKzjIujLgRyWapgtfAWrne/M/S8H7HLs7t67/QxR7hcL+UPI7IMAFU0HFN6qT8dLj3IQKMF1xygwLeSIrer5fhreiWK03MBfQKFF1JQoSP744jIXXqHy0zMzN0adACpy5OOMz/MP2xSI471GMSx7hjimdwGc9QZRSSd61UFzGPdOXKknqZjnYiOg1QQRV5dQnQFwME2tDN3ojYDudPm6QLKbzTEFN6KjuKdLJLXucr5LBgiKjmDzECOiMhhNkGU8R6qOoDYE+b02iJq4sHEhIRLiM40d8EaFdKx/ZvZ1DjAbcquN5oUQ8R3HpbZ3pXBnKGB7fsZcwrDChCHpyjElOAiC4spvO+LfK/cCqBXbrok41uGR/VoWFgMCw1Mmc2M25RdbzQphoi3eTUbcxRLzdnyoRxb2Xasq+7TcWJKcBIr15IjWURnjWQQZcs7Mt7D21d/isMFnmK7ELUS391ytuys3IVtaDM6DySSOagA9DuRoWUCjPfzSL8zfGqYLIHLZlJ4cqBOA6U3zYRz16m+yS49LhLIr75ZgjE2cLACxCJuWpf7f1JC/ofWsgAL6JM80m/mUfrE/i5YK53rqH1se9okFqzUsf2bUZe9DzrJJQ5klMylCOKzWA0ycRkpAHo2gnjecVzmRy0xMEkCIp1JrPw9UGfaTDh3neqb7FJUJJBfTZdgjG2bNW1YxE3rRRgl5OMBkWw+iZUrtvC5lkTkl1QQVU2+2F9vKfKKGIVKvYRvyHyTAQNrOt0IvAKRqvDK+PWcfLgQCQEADrOv4PUJ60SJBFQd27OKoj6fwe3LImFMryQRseUZRX6cRdF+4ratT9TLQaokXdcmSjxvXok2UKdY8gArIjFcRvhZkZiuV5KIXHfmRQ3eD88eIAa+FUDgehLZA0BdS2FUipw/brlZjnWgfPQZAFQrWSSvm+01t8gdkbh82WUpAGutJf3O4HvnrFc44SUOfCvhjrkUgV68KRnk2CVQMK9W07NJRHo5RhEks46pPvOecwM5SMVkfw0oW2MSBfNYLzrqLOqAKhLDZYQzIjFdLyYRiTjzogbvh5e4Zh7r2YjYH0mK9eRSk491Q9ueQ64YES0CqSBqgPokYrmX8O0Z3qZl5hLfwbe1+Ojkd7vENfHFmr3lMn0gJ/xs2czBsTdAhbqWgya9flQChRsacmvOOjU0vl+Q+stcCCPzfbGkwcTu+nwG5RdyUFfMxysqUi80UE5GHQUXxOczuP1Cqt9eoN9nb4zos6cLaAz9zCinbYmDftAzM4kCGloOKXXwuEx5uIXSaAkUGhpyKcexntLQKI943zwJI1MWSxpMPNbDGZS1HHovS1WR0hooX5t0rJtXF6o5XJNvKBEtqMfu3bv3yPlkKCRGbpwe5F/G69mPENPekh91Og1KaQSSRai5Bsry3/xEC88opXE1WYSOFLTuNAEJuTHycUSyOlJaF5IDZkS0wKYfiTqLEgVoKUCfapVlosVVSospq0hSrNad0hhAzZyRx9WsDqQ0BlBEZxSDqBFEHoYubhXBQIrOKFVNQWtwlGTmjBLSkSx0NYcGO5fozGIQNVICha6GlAqvyxITnRqJgriMv1wuDKzATTMShkh67y2TQERnka+cKCIiIiISOBJFREREJIFBFBEREZEEBlFEREREEhhEEREREUlgEEVEREQkgUEUERERkQQGUUREREQSGEQRERERSWAQRURERCSBQRQRERGRBAZRRERERBIYRBERERFJYBBFREREJIFBFBEREZEEBlFEREREEhhEEREREUlgEEVEREQkgUEUERERkQQGUUREREQSGEQRERERSWAQRURERCSBQRQRERGRBAZRRERERBIYRBERERFJYBBFREREJIFBFBEREZEEBlFEREREEhhEEREREUlgEEVEREQkgUEUERERkQQGUUREREQSGEQRERERSWAQRURERCSBQRQRERGRBAZRRERERBIYRBERERFJYBBFREREJIFBFBEREZEEBlFEREREEhhEEREREUlgEEVEREQkgUEUERERkQQGUUREREQSGEQRERERSWAQRURERCSBQRQRERGRBAZRRERERBIYRBERERFJYBBFREREJIFBFBEREZEEBlGmTn0POzs7qLSce+akVTne30dEREQzJRVEdep72Nmro2M+blV2Bh7700F9b8c9oDADjZ2dCpy7/OjU97A3ZR3nSqeFekUElWLbQ6Uu9+4SERGdVVJB1FG7DSwFEQQAdNA5gu2xX0dot8X/mgeDYU7roDnwWNZRuw3zV9AknTr2dnVUm/Yea6NZ3cXOUJRLRER0fkkEUSJoUpQl83E/CJpGKBQCmge20aIWDpoKQiFloBzNWTCIJSWEmLqJra0tbG1tYVMNiX0D7w8REdH59ti9e/ceOZ8MhcyT5oAWKjs6Jo4NhVRsrS07nx1D1AtVBXQdULewtmxO5dUUqKEm9OoS1K019GvtoFWvoVZtmiNMCpRQFOtry/3RsFYFO/r41iqxTWysmuNp9T3sVtsIqVuIdirYt+pWQoitr8EsZtNBq7KPWrM/yqUoIUTX17DsVrZeQ63ZHAo4Q9brXXCtyg70poLY5oZLXxAREZ0/EiNRM9bp4AgAsIyVUH9Kr3XQhBJaxnJwCcAROraUnFZlF3ovgAKANtpNHbvSeVkWBUe1Peza6243Ud115lN1UN/bhW4LoACg3W5C393DYPpQp9/eGYzYERER0WIIfPe73/1b55OK4jaFtoSVaBTRqIJO7QCKuoWvrUcRDX0GLeMQF63HK9Y0n0efPsBvjUN8NhTFHy91UDt4DKHwQxj7HVz84h/jwsMWagcPcfELYVz4rBhh+p//dgSEVGx+bR1fjEYRjYagdB7g4LCJT5UoVpYALK0gGo0iGo1C6dRwcBSCuvU1rJvPRaNRhC981taM38I4bOPhw4dQQiq+/LV1fDEagtIxcHB0hMesegF06v8CvfkQUGJQv/wlrH/R1oajNg4/Vfr90HpftHegbBQhpQPj4AhKqF/v4mrh3/cPcKRcwhf/+AL6vUZERHR++R+J6nRwBAX9lKg22vbH01heQajdRKt+gKYScpkWs5LNQ1DtU3cIYnktipBLcrpvIRUbvbqDWF4RU5tHvaGwDlrNtmjDxqqtjUEsr60jpthzhzqo18z2DpSFZBL+IGtZBue2N+Mr6VoVHU0oiK2vzqTdREREZ4HnIKp3wt6too02qrvmSVtvAr3Hzqksv5axEmqjWhVTef0TdhvtI/SvBEQT+lDwYOZrHXWmmtILrUxKUDIT6UMrthwtSxDBJVHGPv0IRcEsYsyT0KrsQW8CIZW5UERERHaeg6i5cYxkiZEfBSG3YahTZzZXLo4SXN3oXUFn36xk+el0zGTyNkLq5qlIficiIjpOnoMo64S9GVPE9JR5wlZDAJQYNre2sLU1g9GK5bUx9ZgjPb3f57JtjJpycowOTcv1cn9rpGwJwaD4V1EAtNtm8nzfrNbAmg8rcd66etC9R4mIiM4zz0GU5WhgaMUKGo7PkqIA7Sr2Ky3PQdGSiGTQbLWmmuoTxFWEQBN6xV6fWPKgOjDVZ03vNVGz5jk7LdT3djBh9YUTJAKoals5NcsvEBERnQQf60QJrcoO9KMYNjdWEbROuEt+14bqE+szYfT6Q5069kQBc5rKOsk7CwquJ/4Ra0aNWidq4OfNn7WXHbtmlhKCumFb08psv7O5SigENJtYcv6+E2b1w0iK9d4TERGdbz5HopwjT/PN+XEXxOrGJtSQAreFGFwtr2FTDYmptZlYxtqmitjAauoKlJCKTXsABQDBVWyosf7vVhSE1E1sRGfWGCIiIjoBvkeiiIiIiMj3SBQRERERgUEUERERkRwGUUREREQSGEQRERERSWAQRURERCSBQRQRERGRBAZRRERERBIYRBERERFJYBBFREREJIFBFBEREZEEBlFEREREEhhEEREREUlgEEVEREQkgUEUERERkQQGUUREREQSGEQRERERSWAQRURERCSBQRQRERGRBAZRRERERBIYRBERERFJYBBFREREJIFBFBEREZEEBlFEREREEhhEEREREUlgEEVEREQkgUEUERERkQQGUUREREQSGEQRERERSWAQRURERCSBQRQRERGRBAZRRERERBIeu3fv3iPnk6FQyPkUuejU97BbbdueURDb3MBq0PYUzV+njr3dKuzvBEIqttaW7c8QERHNlFQQ1anvYbcZwubGKoIAWpUd6Eex3uPzwnMQ1WmhXquh2rTKKgjF1rE2VNCfTquOWq2KfrUKQqEooqvLM3sf7K8xpG5hMC5pobKjo2l/yqLM5ngQr7GJZtt6kSGoW2sYaAaDKCIiOgFS03lH7TawFDRPkB10jmB7fN6EoG5tYWtrC1tbbgFUHXu7ui2AAoA2mtVd7FRatuf8aqGm2wIoAGi30azq2J2qXptOHfsDQeJx6qC+t4NdvWoLoEYIrmKj9x6oGP8nABER0WxIBFEiaFKUJfPxESad4861YBBLSggxddM8yW9hUzVP880DTBPuKKEY1E0reNjC1mYMCqavV+igvl9FGyHEYopz5wAl1n9tvW3KUahWZRfVtvUa7fU7RqGIiIhOiI8gqoXKzg52dsTJrV3dxc7ODnas6ZymLh7LjoJ0WqhX9rC3s2PWu4O9vQpaHWfB02YZaxtrWF3uhxTB5TWIOOoIHenXt4zVtVXYqgWCq4jOaBimU99HtQ2E1BMIWjp11JpiSm5jbRXLwWnCMSIiovnwEUTNUwf1fTHlNTg71YS+W5nBqMr50GlVUGsCSiw6XeBjTuMpsU1HDtTx6LSaaENBLHoCv5yIiMgjicRykUwMK8nYTOpdGko69qODeqUGrERtIzYdtCq70JtuCc3etCo70F2znk1TJj+LpOul4UTnicyE7Cl/v8gbEiODllBsc8qEdbNO9NtmJZcPvw8uieUzSG4X71sIMRVo1pr96WIlhFjUfoy4MdvExHIiIpoz/yNRnQ6OoKCfEtVG2/5YShCra4NTXkAQyyvjgrnTq1XR0YSC2Po0AZS7ZnUXe3XpOUJzGm+KtlnJ7Xt1yLXCvFABTVR1WwAFAO0mqvouZGeMiYiIZsnzSNTw5fxuRlzi70Wnhcp+zfVKrOERkMUgMxLVquxBb7qN6kyv06pjXxeX+kvVb44qIraJDdubOHokalinU0dtt4qmmXBur8eb/uiaElKxHl2GSInqoFXfhy4StcaMMnEkioiIjof/kah5MJcBcAugzo6OOU3VRkidT65RcHkVG+YVekcSGesiF8l+0YDYrOC5qZsJ/2NGuoLBVaxZVx9OQ4lhfc0KoCBGJlfXERMvTnKUi4iIaHY8B1HB1Q1xeX5MGVgbSQ2ZuUWj1knyoFUToydKTDXrMbcpT8atSj8QcN2kp5z8EqMr/fwuiU46RTpiPk5SEMElMXV3+q/MJCKis8xzEGU5GhgtsvJXZmMpuNTLw+m06qjUxmWFnxbW9JTiaTrM0qrsiVEfHwlAnU4Llf0q2lAQGhGojavXCpSdmwicRQC4tbU1Zoqug06rYi7QKdcGAGYuXBvVfXuQ20GrIpZdUELySetERESz4jknyjJ4ixczQFiaLv9kUr6Vn+DjOHnJiZr02tyvELRf9TYiz6xVwc6ISw9H5yJ5qNfFyJyokW1QEFI3RrxnXtowfNVhjxKCujG6v5kTRUREx8XnSJRz5Gk2q5UHVzewGQuJ1bYBAAqUkIpN1VyB+9xZlsgrUnormLsHUJCs1w+rDaMCKHhsQxCrG5tQQ/Z33zwmxgZQREREx8f3SBT1eRmJktVpVbCvN9F2u+HuFOZVrx/zbQNHooiI6Hj4HImiebOS4Xd1caXcrG67Mq96/ViENhAREc0Kg6ipNaH3rvjbw5ir/31RlBDUzdnngs2rXj9m3oZO3XbPRccK6kRERHPC6bwpDCeNj0qUprkyFwkdSM/jdB4REc0ZgygiIiIiCZzOIyIiIpLAIIqIiIhIAoMoIiIiIgkMooiIiIgkLEQQ1amLe6mNuJUaERER0cKRCqI69T3s7PVvDtuq7Aw8JiIiIjrrpIKoo3YbWAqaN80176fXe0xERER09kkEUSJoUpQl8/FsbkJMREREdJr4WGzTvLGr82kniZWixcrfQGxzA8utCvar4t5qUEKIra8t5grgnRbqtRqazXZvpWxFCSG6voblRWwvERERzZTESNT8NPf3sGsFUADQbqK6O7v70c1OB/V9HVVbAAUA7XYT+m4FzI8nIiI6+3yMRFnEiBRU8way5n3LlqzHEuz3oFNCKtbXlhFEB636PvRqG0psExsSw1Gtyg70cUNnSgybG6sSuVwd1Cs1YCWK1d6wUwetyi70JhCaoi+IiIjodPA/EtXp4AgK+ilRbbTtj6egxDaxsbZsBjVBLK9GEQLQbrYW7Mq/IFbX1mwBlHhueWVc8ElERERnieeRKPto0WgKYpsbvnOYrLqHR3A6qO/togrZEaM56rRQ2a+h6ZJVP/w6iIiI6KzxPxJF5hSm7hpAERER0fngeSTKIkaNlqBurWHZyjs6mm6kaORIlJlv1Za44g9zzImy6lViKtZXrelHAK0KdvTm8OsgIiKiM8f3SNTRwOiLudDmzNgynzot1PeraAMIrSxmRLIUXOoFUJ1WHZXauIiNiIiIzhLfI1GDI09mztKS3EiRZWy+leQo1DyNbS9zooiIiM4FnyNRzpGn2axWHlyOIhZSoCi2JxUFodjmwgVQABBc3cBmLIR+cxUoIRWbasz2HBEREZ1lvkeiiIiIiMj3SBQRERERgUEUERERkRwGUUREREQSGEQRERERSWAQRURERCSBQRQRERGRBAZRRERERBIYRBERERFJYBBFREREJEEqiOrU97CzV+/dLrhV2Rl4TERERHTWSQVRR+02sBREEOjfT6/3mIiIiOjskwiiRNCkKEvm49nchJiIiIjoNPFxA+IWKjs6ms6nnUIqttaWnc8SERERnSkSI1FERERE5GMkyiJGpKBuYW0ZQKeOvd0qlqzHREREROeA/5GoTgdHUNBPiWqjbX9MREREdA54Honq1PewW52UQa4gtrmBVV6mR0RERGec/5EoIiIiIvI+EmURI1JLULfWsGwutKkfxbC5scp1ooiIiOjc8D0SdTSwKJS50CYRERHROeM7iAIAKAoG8si5WjkRERGdMz6DKOfIE1crJyIiovPJd04UEREREfkeiSIiIiIiMIgiIiIiksMgioiIiEgCgygiIiIiCQyiiIiIiCQwiCIiIiKSwCCKiIiISMK5CaI69T3s7Oxgr9Jy7joBLVT2Kpi+JbOqh4iIiPw6J0FUB62mWFq93Tw44aCjg/qejmYbQMexxwz0PMd5HQDtJvQdBlJERETHTSqI6tT3sLNX78UArcrOwOPFE8RySAEAKKEVLDt3S+rU97DnM4BpVXZRbSuIba5hedobDgaXsbYZg4ImdM+RFxEREc2CVBB11G7bbjps3k9vwW9CHFzdwNbWFjbWZhVCiX7wdevAVgV6E1Bi61idVWcFV7EeU4Cm7n0Ei4iIiKYmEUSJoElRlszHvAmxNx3Ua01AiWF9ZhGUEFyNIgSgWVvk0UAiIqKzxccNiFuo7OhoOp92CqnY8jna06nvYbcKxDY3sNyqYL/aFCM8Sgix9TXHqI1ox1FsExurQL2yj6qZ76SEYlhfW7WNiLm0eUT7+m1YR7BVQ21UG1oV7Ojje0GJbWLDGSiZP+e6z+SvHwaJn20jpG7B5eURERHRjEmMRM1Pc38Hu1bgAJE0Xd3dQ91teKXdQmVntxdAAUC7WcXuVHNabTT3d6EPtcFf3pOb1kETgIKQh0So5v6e934wBZdDUAA0D6ZtKREREXkR+O53v/u3zicVRSRhD1rCSjSKaFRBp3YARd3C19ajiIY+g5ZxiIvW4xVrms+7Tx/8FsZhGw8fAkpIxZe/to4vRkNQPvMAB4dtPPyPIYQvfNYs3UGrdoDDo0McQUFM/TK+tP5FREMKOsYBjo4egxJdgWiF1eZ+u4+UkGsbRRseDrehY+Dg6AiPKVGsLAFYWjHri0Lp1HBwFIK69TWs935P1NZWSwf3/93A4X+4hC/+8QU491r6/fDQQz84fPaz+P9aBg4f/iFC4dG/g4iIiGbD/0hUp4MjKOinRLXRtj+eghLbxMbasjkdF8SymevTbrZccn1CULc2sGqN7ASXseI2C+lXSB1sg1npUWe4Bd6ZeWMek+/99YMliOASgHYbR85dRERENHOegyhrDaOd3SraaKO6uyMe602g93j8lNMkS0FniLEE10ExAHBZqmB5bQtbW2tDz/sRWpnmp2fDVz8QERHRifAcRBERERFRn+cgylpnaTOmmFNpW9ja2oIaAqDEsLm1ha2tjbFXkPnWaYmVvT1Og52MI0ye6TNHko46Y6bjxvDUD+Z6XYpi5oMRERHRPHkOoixHA4tCmSfumbGFGJ0WKvtVtBdkis3NkqKIK/pa43KVYMtXaqI1vqBpsB/qXvrBU6BFREREs+I7iAJcRjtmdOJu6rsiz2pnBzu75v3lQqr8uketSr8+a72opt57bm+aBC4AwaDohXZVx27v97jXKxLU22h6iKKc/VD10A+dllgSYWygRURERDPjM4hyjjzNcbVyRUEopmJzXORw0pbXsKmGvCV9L0cRU4B2tTZyzangchSxkDJYn6IgFNt0XSC0z7zBshJDdFwxIiIimhkfK5bPz7lZbdvDquUyzk3/ERERLRCfI1E0leU1qCGgXd2faimIAZ069qvtidN9RERENFsMoo7Z8pqKENriVjLTBlKdFiq7VbSV2GJPexIREZ1BDKKO3TLWtlSEFGDqbPyguDmxumG/6TIREREdh4XIiSIiIiI6bTgSRURERCSBQRQRERGRBAZRRERERBIYRBERERFJYBBFREREJIFBFBEREZGE/x+WBF/7L6o2MgAAAABJRU5ErkJggg==;" vertex="1" parent="1">
          <mxGeometry x="132" y="1120" width="593" height="426" as="geometry" />
        </mxCell>
      </root>
    </mxGraphModel>
  </diagram>
</mxfile>
